<svg xmlns="http://www.w3.org/2000/svg" width="100%" viewBox="0 0 1822 584" height="150" xmlns:v="https://vecta.io/nano"><style><![CDATA[.B{stroke-width:6}.C{stroke-width:8}.D{stroke-width:7}]]></style><g fill="none" stroke="#000" stroke-linecap="round" stroke-linejoin="round"><path d="M1243.5 260.5c6.408 1.447 12.468-1.001 17.91-3.221 21.248-8.669 40.832-20.282 57.035-36.833 6.142-6.274 11.509-13.197 15.115-21.42 5.76-13.134 3.213-24.766-6.118-34.974-10.289-11.256-23.839-16.677-38.451-19.509-29.416-5.701-57.303 1.061-84.456 11.549-29.024 11.211-55.474 26.936-79.055 47.385-16.67 14.456-31.507 30.498-41.849 50.092-5.79 10.97-9.116 22.749-5.171 35.443 2.739 8.813 9.247 13.922 17.081 17.393 8.824 3.91 18.325 5.382 27.959 5.562 8.33.156 16.681.351 24.996-.035 16.677-.774 33.326-2.423 50.007-2.772 12.483-.261 24.962-.969 37.506-.363 12.367.597 24.736.621 36.993 2.684 9.406 1.584 19.145 2.948 26.833 8.735 5.66 4.26 9.914 3.346 15.189.328 14.219-8.134 29.944-13.052 44.502-20.492 1.125-.575 2.639-.387 3.973-.554M353 135.75c-3.201-1.873-3.95.208-5.069 2.719-3.281 7.36-3.839 15.253-4.899 23.035-2.645 19.42-3.641 39.005-5.66 58.482l-5.712 48.533c-4.282 34.646-9.914 69.074-15.782 103.459-3.427 20.082-6.011 40.429-13.829 59.541-1.742 4.259-3.781 8.357-7.109 11.415-7.431 6.826-13.505 6.849-23.885-.017-12.004-7.94-20.946-19.039-29.58-30.398-25.984-34.187-48.327-70.674-68.404-108.556-10.399-19.622-20.099-39.615-30.057-59.469l-13.017-26.492c-1.354-2.752-2.604-5.62-5.996-6.502" class="D"/><path stroke-width="9" d="M1303 324c-4.687 3.708-10.285 5.754-15.497 8.506-19.021 10.046-37.85 20.433-55.998 32.002-20.118 12.825-39.384 26.767-56.51 43.487-4.125 4.027-7.133 8.796-9.49 14.007-2.094 4.629-.781 9.927 4.944 12.132 9.058 3.488 17.965 2.484 27.054.879 29.417-5.196 55.246-18.088 78.493-36.519 11.726-9.297 22.134-19.845 29.442-33.029 3.862-6.967 6.876-14.571 7.322-22.479.357-6.324-1.249-12.818-4.759-18.486"/><path d="M1539 282.25c-8.155 13.599-17.845 26.069-28.563 37.692-7.472 8.103-15.652 15.107-26.876 18.274-8.369 2.361-15.106.64-21.529-4.258-3.183-2.427-5.937-5.408-9.055-7.93-4.209-3.405-7.064-2.533-9.495 2.462-2.778 5.708-3.284 12.017-4.968 18.013-1.727 6.15-3.143 12.396-5.109 18.465-.834 2.575-1.875 6.222-5.387 5.866-3.461-.35-4.338-3.783-5.021-6.834-3.847-17.187-5.804-34.702-9.048-51.991a48.93 48.93 0 0 0-3.01-9.983c-2.435-5.749-5.899-6.052-9.427-1.019-3.115 4.445-5.071 9.45-7.05 14.477-7.534 19.139-13.134 38.815-17.012 59.006-.464 2.415-1.169 4.943-3.449 6.51M118.25 162c1.334 6.105 1.1 12.308 1.359 18.495.149 3.569.675 6.974-.525 10.533-1.123 3.329 1.415 6.323 2.195 9.401 1.298 5.126 2.245 9.579 1.099 15.148-1.159 5.635-1.524 12.014.586 17.935.264.739.03 1.654.037 2.487.205 25.226 2.297 50.352 3.972 75.502l2.087 36.994 2.098 31.495 1.94 29.505c.812 16.85 2.308 33.667 3.371 50.507.515 8.155 1.069 16.339.898 24.495-.11 5.233 2.047 10.268.883 15.503M587.5 288.5c.428-2.68 1.645-5.123 1.579-8.002-.212-9.184-6.045-13.817-15.09-12.057-6.161 1.199-11.421 4.02-15.957 8.094-17.01 15.278-28.487 34.259-36.521 55.469-2.879 7.6-4.511 15.539-5.956 23.506-.229 1.262.247 2.661.45 3.989.612 3.983 2.867 5.253 5.957 2.951 6.115-4.558 10.987-10.402 15.505-16.473 10.023-13.468 19.933-27.02 28.583-41.446 1.132-1.887 2.649-4.042 4.52-4.871 2.794-1.238 2.708-2.917 2.179-5.159M479.5 240.5c-7.542-.684-14.486 2.063-21.475 4.088-11.458 3.32-22.711 7.603-32.394 14.594-6.016 4.343-11.322 9.126-18.502 12.128-9.869 4.126-16.629 12.876-23.059 21.244-12.499 16.268-21.111 34.538-25.972 54.47-.976 4.003-1.731 8.237-1.093 12.475.6 3.984 2.889 5.277 5.951 2.944 5.674-4.323 10.265-9.734 14.57-15.423 10.277-13.584 20.425-27.243 29.035-41.984 1.222-2.093 2.948-4.382 5.018-5.368 2.741-1.306 2.699-2.926 2.17-5.168" class="D"/><path d="M1633 240c-1.468 3.833-.075 7.692.135 11.493.194 3.504.291 7.004.36 10.508.477 24.189 1.608 48.348 2.973 72.502l2.047 44.497c.239 5.004.47 10.023 1.074 14.99.243 2.001.659 4.454 3.411 5.011M696.5 313.5c6.761-7.25 13.632-14.464 17.929-23.534 2.061-4.351 3.439-9.059 3.555-13.967.268-11.322-9.264-19.943-20.482-18.486-14.74 1.915-27.32 8.701-39.006 17.48-10.282 7.724-18.061 17.31-22.524 29.496-1.943 5.303-1.609 11.19.901 15.283 2.608 4.252 8.199 6.785 13.635 7.688l35.471 5.658c5.29.995 11.359.104 15.522 4.882" class="B"/><path d="M918 299.5c3.556 4.254 2.428 9.463 1.785 13.969-1.219 8.542-.519 17.03-.747 25.532-.235 8.748.431 17.455 2.495 25.991.617 2.552 1.448 5.089 2.5 7.493 3.862 8.825 9.973 12.345 19.906 4.933 9.443-7.046 16.047-16.753 22.552-26.425 5.569-8.281 9.347-17.492 13.439-26.526.665-1.468 1.163-2.851 2.57-3.718M573 299.5c3.556 4.254 2.428 9.463 1.785 13.969-1.219 8.542-.519 17.03-.747 25.532-.235 8.748.431 17.456 2.496 25.991.617 2.552 1.448 5.089 2.5 7.493 3.862 8.825 9.973 12.345 19.906 4.933 9.443-7.046 16.036-16.761 22.555-26.422 6.216-9.211 9.968-19.682 15.005-29.496" class="D"/><path d="M414 299.5c3.625 4.425 2.42 9.82 1.746 14.463-.976 6.729-.518 13.369-.703 20.038-.289 10.407.045 20.793 2.46 30.998 1.01 4.271 2.305 8.512 5.048 11.96 4.499 5.654 10.651 5.845 17.425.508 9.261-7.296 16.111-16.739 22.47-26.504 3.169-4.865 6.443-9.74 8.104-15.45.32-1.101 1.052-2.453 1.986-2.946 8.112-4.283 6.104-11.966 5.816-18.562-.576-13.204.174-26.338.466-39.51.248-11.176 1.592-22.307 1.458-33.49.696-3.061 3.541-2.724 5.731-2.936 17.174-1.664 34.118.532 50.988 3.461 6.413 1.113 12.9 1.934 19.046 4.367 1.036.41 1.675 1.02 2.459 1.603" class="C"/><path d="M751 156c-1.626 9.265-2.197 18.62-1.971 27.999l2.643 93.994c.215 5.648.809 11.324.801 17.007-.002 1.724.637 3.13 1.526 4.5" class="B"/><path d="M1541.5 293.5c-3.386 16.848-3.774 33.917-3.397 50.998.123 5.555.249 11.193 2.803 16.547 3.152 6.606 6.917 8.085 12.049 3.405 7.085-6.461 12.011-14.615 16.507-22.971 4.343-8.072 8.368-16.314 12.54-24.479 1.437-2.812 2.859-5.368 5.905-7.159 2.984-1.754 2.959-5.737 2.998-8.843.214-17.189 1.102-34.345 2.095-51.499.164-2.833 1.198-5.667-.106-8.406 1.347-3.101 4.183-2.855 6.609-3.052 11.551-.938 22.998-.29 34.519 1.294 10.914 1.501 21.8 2.929 32.469 5.696 1.795.465 3.757.804 5.008 2.468" class="D"/><path d="M1678.75 287.5c7.773 4.498 7.322 12.883 9.161 20.023 3.377 13.111 4.773 26.695 9.505 39.508.892 2.414 2.046 4.652 3.084 6.969 3.842 8.575 10.395 8.2 16.943 3.424 10.006-7.297 17.534-17.13 25.556-26.424 5.277-6.115 10.375-12.371 15-19" class="B"/><path d="M1356.5 281.5c5.001 1.461 6.643 3.557 6.981 9.501.825 14.513 2.881 28.902 3.291 43.491.36 12.818.951 25.68 1.709 38.509.093 1.575.195 3.094 1.011 4.503 2.76 4.765 2.021 9.801 1.629 15.005-.624 8.299-.456 16.657-.622 24.991" class="C"/><path d="M796.75 287.5c7.773 4.498 7.322 12.883 9.161 20.023 3.376 13.111 4.674 26.732 9.593 39.475.97 2.512 1.726 5.155 3.044 7.474 4.738 8.339 10.113 7.702 16.323 3.345 7.504-5.266 14.055-11.911 19.59-19.346 2.265-3.042 4.907-5.348 8.539-6.471" class="B"/><path d="M796.5 289c-5.808 4.18-6.67 11.065-8.901 17.037-8.443 22.599-14.994 45.764-19.602 69.462l-2.523 12.495c-.891 3.894-.819 8.051-4.356 11.141-1.337 1.168-1.1 3.865-.118 5.865m917.5-116c-5.808 4.18-6.67 11.065-8.901 17.037-8.443 22.599-14.999 45.763-19.598 69.463l-2.526 12.994c-.805 3.681-1.158 7.548-3.959 10.52-1.698 1.801-1.17 3.917-.515 5.986M1589 310c2.998 3.872 2.972 8.443 3 13 .122 19.895 1.918 39.687 3.333 59.512l1.61 25.99c.057 1.821-.61 3.665-.943 5.498M932.5 288.5c.428-2.68 1.645-5.123 1.579-8.002-.212-9.184-6.043-13.808-15.09-12.057-6.672 1.291-12.102 4.61-16.982 9.066-10.417 9.512-18.712 20.647-25.562 32.962-3.344 6.013-7.216 11.738-10.974 17.512-1.544 2.372-2.754 4.754-1.431 7.5 1.222 2.535.03 4.855-.65 6.984-1.731 5.42-2.675 10.91-2.326 16.531.3 4.837 2.548 5.856 6.408 2.965 5.533-4.145 9.884-9.456 14.05-14.945 10.298-13.569 20.431-27.238 29.041-41.98 1.222-2.093 2.948-4.382 5.018-5.368 2.741-1.306 2.699-2.926 2.17-5.168" class="C"/><path d="M759.5 295.5c.124 1.466-.106 2.091-1.958 2.641-4.995 1.483-5.771 3.513-4.561 8.863a20.68 20.68 0 0 1 .502 3.996c.675 25.868 2.061 51.698 4.003 77.501.281 3.726-.923 7.838 3.014 10.499M708 338c7.147 4.943 6.166 13.539.881 23.94-8.446 16.623-21.3 28.631-39.344 34.672-2.34.783-4.72 1.186-7.057 1.814-4.171 1.12-5.837-2.42-7.98-4.925" class="B"/><path d="M477 330.5c2.733 5.008 2.655 10.606 2.917 16.004.837 17.193 2.166 34.345 3.435 51.507.388 5.251 1.89 10.721-.353 15.989" class="C"/><path d="M1633 156c-1.735 9.593-2.407 19.306-1.914 28.996.856 16.829-.305 33.706 1.38 50.508.098.973-.299 1.997-.466 2.997m-39.5 1.999c-9.15-.453-17.579 2.733-25.969 5.591-11.43 3.895-22.807 8.145-31.991 16.453-1.578 1.428-3.553.358-5.04 1.456m-778 40c-4.54-.153-7.344 3.249-10.429 5.594-11.603 8.82-24.325 16.278-34.071 27.406-13.279 4.643-20.185 16.808-29.885 25.627-6.918 6.29-12.314 14.134-17.54 21.923-1.802 2.686-2.741 5.95-4.075 8.95" class="B"/><path d="M1597 194l-2.633 37.988c-.207 2.35-.24 4.399.633 6.512M484 194l-2.633 37.988c-.207 2.35-.24 4.399.633 6.512" class="C"/><path stroke-width="5" d="M419.5 267c2 1 4.16 1.773 5.968 3.046 4.167 2.935 5.811 9.484 4.038 14.956-.374 1.154-.673 2.331-1.006 3.498"/><path stroke-width="3" d="M114 192c-1.165 1.833.011 3.667 0 5.5"/></g></svg>