<svg version="1.1" id="Layer_1" xmlns="http://www.w3.org/2000/svg" xmlns:xlink="http://www.w3.org/1999/xlink" x="0px" y="0px"
	 width="100%" viewBox="0 0 1822 584" enable-background="new 0 0 1822 584" xml:space="preserve">
<path fill="none" opacity="1.000000" stroke="#ffffff" stroke-linecap="round" stroke-linejoin="round" stroke-width="7.000000"
	d="
M1243.500000,260.500000
	C1249.907837,261.946960 1255.968262,259.499420 1261.409912,257.279175
	C1282.657837,248.609802 1302.242065,236.997147 1318.445068,220.446182
	C1324.587402,214.171860 1329.953857,207.249329 1333.560303,199.026428
	C1339.320801,185.891937 1336.773682,174.260468 1327.442383,164.052643
	C1317.153198,152.796936 1303.603882,147.375778 1288.991455,144.543869
	C1259.575806,138.843033 1231.688599,145.604675 1204.535767,156.092575
	C1175.511353,167.303406 1149.062012,183.028275 1125.480591,203.477585
	C1108.810913,217.933121 1093.973267,233.975784 1083.631470,253.569382
	C1077.841553,264.539032 1074.515259,276.318604 1078.460449,289.012299
	C1081.199585,297.825378 1087.707275,302.934326 1095.541748,306.405762
	C1104.366089,310.315735 1113.867188,311.787720 1123.500610,311.967682
	C1131.831055,312.123291 1140.181396,312.318726 1148.496826,311.932831
	C1165.173950,311.158905 1181.823120,309.510284 1198.503418,309.160858
	C1210.986328,308.899414 1223.465576,308.192139 1236.009766,308.797852
	C1248.376953,309.394989 1260.745483,309.418579 1273.003052,311.482208
	C1282.409424,313.065857 1292.148193,314.430420 1299.836548,320.217163
	C1305.496216,324.477051 1309.750122,323.563416 1315.025879,320.545319
	C1329.245117,312.411072 1344.969482,307.493683 1359.527466,300.053741
	C1360.652222,299.478943 1362.166626,299.666656 1363.500000,299.500000
"/>
<path fill="none" opacity="1.000000" stroke="#ffffff" stroke-linecap="round" stroke-linejoin="round" stroke-width="7.000000"
	d="
M353.000000,135.750000
	C349.799225,133.877365 349.049927,135.958084 347.930725,138.469131
	C344.650146,145.829346 344.092194,153.721634 343.032013,161.504364
	C340.386627,180.923920 339.390808,200.509399 337.371674,219.986694
	C335.692963,236.180557 333.657288,252.352890 331.659302,268.519684
	C327.377533,303.165802 321.745514,337.593414 315.877350,371.979065
	C312.450317,392.060577 309.866119,412.408539 302.048676,431.519897
	C300.306396,435.779236 298.268005,439.877228 294.939911,442.934570
	C287.509033,449.760956 281.434784,449.783325 271.054443,442.917694
	C259.050293,434.978088 250.108810,423.879059 241.474686,412.519257
	C215.490829,378.332581 193.147766,341.844879 173.070267,303.962769
	C162.670822,284.341125 152.971390,264.347687 143.013092,244.493423
	C138.602097,235.699051 134.339722,226.830185 129.996201,218.001862
	C128.642059,215.249512 127.392319,212.381454 124.000000,211.500000
"/>
<path fill="none" opacity="1.000000" stroke="#ffffff" stroke-linecap="round" stroke-linejoin="round" stroke-width="9.000000"
	d="
M1303.000000,324.000000
	C1298.312744,327.707550 1292.715210,329.753723 1287.503418,332.506409
	C1268.482910,342.552582 1249.653687,352.939178 1231.505371,364.508331
	C1211.387085,377.333252 1192.121826,391.275177 1174.995117,407.995056
	C1170.869751,412.022461 1167.862183,416.790833 1165.504639,422.002075
	C1163.410278,426.631317 1164.723999,431.929413 1170.448486,434.133698
	C1179.506470,437.621552 1188.413086,436.618073 1197.502197,435.012604
	C1226.919678,429.816559 1252.748291,416.925049 1275.994995,398.493652
	C1287.721191,389.196350 1298.129028,378.648376 1305.437012,365.465088
	C1309.299072,358.498047 1312.312744,350.893707 1312.759399,342.986420
	C1313.116699,336.662048 1311.510620,330.168274 1308.000000,324.500000
"/>
<path fill="none" opacity="1.000000" stroke="#ffffff" stroke-linecap="round" stroke-linejoin="round" stroke-width="7.000000"
	d="
M1539.000000,282.250000
	C1530.844971,295.848755 1521.155151,308.319336 1510.437378,319.942230
	C1502.964966,328.045715 1494.785767,335.049377 1483.561157,338.216553
	C1475.192627,340.577789 1468.454712,338.856201 1462.031738,333.958344
	C1458.848999,331.531342 1456.094360,328.549957 1452.976929,326.028503
	C1448.767456,322.623810 1445.913086,323.495544 1443.481445,328.490997
	C1440.703003,334.198853 1440.197388,340.508362 1438.513428,346.503754
	C1436.786011,352.653412 1435.370239,358.899261 1433.403931,364.968872
	C1432.569946,367.543671 1431.528687,371.190430 1428.016724,370.835022
	C1424.555420,370.484741 1423.678711,367.051666 1422.995728,364.000977
	C1419.148560,346.813782 1417.191406,329.299316 1413.947754,312.009796
	C1413.309692,308.608582 1412.286377,305.212036 1410.937500,302.026489
	C1408.502563,296.277039 1405.038452,295.974548 1401.510864,301.007629
	C1398.395874,305.452271 1396.439941,310.457214 1394.461060,315.484680
	C1386.927368,334.623566 1381.326904,354.299500 1377.448975,374.490204
	C1376.985107,376.904999 1376.280029,379.432800 1374.000000,381.000000
"/>
<path fill="none" opacity="1.000000" stroke="#ffffff" stroke-linecap="round" stroke-linejoin="round" stroke-width="7.000000"
	d="
M118.250000,162.000000
	C119.584053,168.104675 119.350281,174.307999 119.608780,180.495453
	C119.757874,184.064072 120.284195,187.469925 119.083641,191.028214
	C117.960327,194.357559 120.499100,197.351227 121.278496,200.429489
	C122.576431,205.555725 123.523392,210.008102 122.377991,215.577728
	C121.219109,221.212906 120.853561,227.592178 122.964012,233.512833
	C123.227562,234.252213 122.994080,235.166718 123.000862,236.000000
	C123.206078,261.226379 125.298203,286.352020 126.973305,311.501770
	C127.794083,323.824860 128.134888,336.181580 129.060669,348.495453
	C129.849762,358.991119 130.524002,369.486206 131.158264,379.990448
	C131.751999,389.823242 132.622742,399.638428 133.097809,409.495300
	C133.909958,426.345703 135.406006,443.162079 136.468689,460.001984
	C136.983353,468.157196 137.537643,476.341125 137.366531,484.497192
	C137.256744,489.730621 139.413422,494.764954 138.250000,500.000000
"/>
<path fill="none" opacity="1.000000" stroke="#ffffff" stroke-linecap="round" stroke-linejoin="round" stroke-width="7.000000"
	d="
M587.500000,288.500000
	C587.927917,285.819824 589.145203,283.377319 589.078674,280.498169
	C588.866516,271.314270 583.033813,266.681213 573.988586,268.441193
	C567.827454,269.639984 562.567932,272.461182 558.031860,276.535461
	C541.021729,291.813812 529.544495,310.794891 521.511230,332.004242
	C518.632568,339.604553 516.999939,347.542969 515.555420,355.510040
	C515.326660,356.771698 515.802002,358.171478 516.005859,359.499084
	C516.617615,363.481750 518.873169,364.752075 521.962402,362.449585
	C528.077576,357.891785 532.949158,352.047821 537.467896,345.976105
	C547.491211,332.508057 557.400940,318.955658 566.050476,304.530273
	C567.182251,302.642822 568.699463,300.488464 570.570557,299.659271
	C573.364380,298.421173 573.278687,296.742065 572.750000,294.500000
"/>
<path fill="none" opacity="1.000000" stroke="#ffffff" stroke-linecap="round" stroke-linejoin="round" stroke-width="7.000000"
	d="
M479.500000,240.500000
	C471.957947,239.815628 465.014069,242.562653 458.025452,244.587784
	C446.567688,247.907944 435.314850,252.190567 425.631439,259.182068
	C419.615631,263.525543 414.309814,268.308563 407.129639,271.310120
	C397.260468,275.435822 390.500458,284.186279 384.071045,292.554565
	C371.572357,308.822479 362.960144,327.092468 358.098816,347.024109
	C357.122467,351.027222 356.367859,355.260864 357.006073,359.499084
	C357.605988,363.483459 359.895172,364.775818 362.956787,362.443298
	C368.631104,358.120239 373.221710,352.709656 377.526489,347.020050
	C387.803955,333.436371 397.951019,319.777496 406.561493,305.035919
	C407.783905,302.943085 409.509644,300.653717 411.579865,299.667725
	C414.321228,298.362152 414.278656,296.742065 413.750000,294.500000
"/>
<path fill="none" opacity="1.000000" stroke="#ffffff" stroke-linecap="round" stroke-linejoin="round" stroke-width="6.000000"
	d="
M1633.000000,240.000000
	C1631.532349,243.833328 1632.924805,247.692261 1633.135376,251.492508
	C1633.329468,254.996140 1633.425903,258.496460 1633.495117,262.000092
	C1633.972168,286.188599 1635.103394,310.348450 1636.468262,334.501801
	C1637.306030,349.325470 1637.806519,364.167938 1638.514893,378.999298
	C1638.753906,384.003784 1638.985107,389.022064 1639.588867,393.989197
	C1639.832153,395.990204 1640.247559,398.443420 1643.000000,399.000000
"/>
<path fill="none" opacity="1.000000" stroke="#ffffff" stroke-linecap="round" stroke-linejoin="round" stroke-width="6.000000"
	d="
M696.500000,313.500000
	C703.261292,306.249756 710.132324,299.035950 714.429077,289.966400
	C716.490356,285.615479 717.867737,280.907257 717.983948,275.999634
	C718.251953,264.678009 708.719604,256.056396 697.501831,257.513916
	C682.761719,259.429077 670.181702,266.214935 658.495361,274.993866
	C648.213318,282.717865 640.434753,292.304047 635.971069,304.489410
	C634.028320,309.792877 634.362305,315.679749 636.871765,319.772034
	C639.479309,324.024261 645.070496,326.557343 650.506592,327.460297
	C662.318542,329.422302 674.215637,330.906464 685.977844,333.117981
	C691.267578,334.112610 697.336975,333.222076 701.500000,338.000000
"/>
<path fill="none" opacity="1.000000" stroke="#ffffff" stroke-linecap="round" stroke-linejoin="round" stroke-width="7.000000"
	d="
M918.000000,299.500000
	C921.556458,303.753845 920.427917,308.963318 919.784607,313.469238
	C918.565125,322.011566 919.266052,330.499054 919.037903,339.001007
	C918.803223,347.749420 919.468567,356.456482 921.533386,364.991913
	C922.150818,367.544159 922.981018,370.081238 924.033264,372.485413
	C927.895691,381.310272 934.006714,384.830078 943.939453,377.418854
	C953.382202,370.373260 959.986572,360.665710 966.490967,350.993927
	C972.060364,342.712494 975.837952,333.501587 979.930115,324.468353
	C980.595337,322.999969 981.092896,321.617493 982.500000,320.750000
"/>
<path fill="none" opacity="1.000000" stroke="#ffffff" stroke-linecap="round" stroke-linejoin="round" stroke-width="7.000000"
	d="
M573.000000,299.500000
	C576.556458,303.753845 575.427979,308.963318 574.784668,313.469269
	C573.565186,322.011566 574.265930,330.499054 574.037781,339.001007
	C573.803101,347.749390 574.468384,356.456512 576.533325,364.991943
	C577.150696,367.544189 577.980957,370.081299 579.033264,372.485443
	C582.895691,381.310303 589.006714,384.830048 598.939453,377.418823
	C608.382141,370.373199 614.975159,360.658081 621.494629,350.996399
	C627.710205,341.785217 631.462891,331.314453 636.500000,321.500000
"/>
<path fill="none" opacity="1.000000" stroke="#ffffff" stroke-linecap="round" stroke-linejoin="round" stroke-width="8.000000"
	d="
M414.000000,299.500000
	C417.624603,303.925354 416.419525,309.319580 415.745728,313.963104
	C414.769409,320.691986 415.227875,327.332153 415.042358,334.001190
	C414.752960,344.407715 415.087799,354.794647 417.501953,364.999542
	C418.512421,369.270844 419.807007,373.511810 422.550293,376.959991
	C427.048920,382.614410 433.201080,382.805389 439.975098,377.468414
	C449.236053,370.172119 456.085602,360.729584 462.445465,350.964478
	C465.614166,346.099243 468.888672,341.224243 470.549774,335.514465
	C470.870026,334.413696 471.602051,333.061951 472.536255,332.568695
	C480.648102,328.285492 478.640320,320.603180 478.352295,314.006439
	C477.775879,300.802368 478.526459,287.668427 478.818298,274.495972
	C479.065887,263.319977 480.410706,252.188873 480.276184,241.005966
	C480.972290,237.944580 483.817474,238.281647 486.006744,238.069473
	C503.180267,236.405121 520.125122,238.601501 536.994690,241.530579
	C543.407715,242.644058 549.895020,243.464996 556.040710,245.897079
	C557.076965,246.307159 557.716125,246.917526 558.500000,247.500000
"/>
<path fill="none" opacity="1.000000" stroke="#ffffff" stroke-linecap="round" stroke-linejoin="round" stroke-width="6.000000"
	d="
M751.000000,156.000000
	C749.373535,165.264771 748.803406,174.620422 749.029480,183.999283
	C749.785034,215.334488 750.479309,246.673813 751.672485,277.993439
	C751.887634,283.641937 752.481628,289.317413 752.473755,294.999969
	C752.471375,296.724060 753.111145,298.129608 754.000000,299.500000
"/>
<path fill="none" opacity="1.000000" stroke="#ffffff" stroke-linecap="round" stroke-linejoin="round" stroke-width="7.000000"
	d="
M1541.500000,293.500000
	C1538.113525,310.347656 1537.726318,327.417358 1538.102539,344.497742
	C1538.225098,350.053040 1538.351196,355.690582 1540.905884,361.044922
	C1544.057739,367.650909 1547.822632,369.130188 1552.954590,364.450256
	C1560.039673,357.989319 1564.965942,349.835754 1569.461914,341.479492
	C1573.804688,333.407593 1577.830200,325.165100 1582.001831,317.000916
	C1583.438843,314.188812 1584.860352,311.632782 1587.906982,309.841797
	C1590.891235,308.087463 1590.865967,304.104736 1590.904785,300.998810
	C1591.119141,283.809326 1592.006348,266.653961 1593.000000,249.500000
	C1593.164185,246.666702 1594.198486,243.833328 1592.894043,241.094193
	C1594.240601,237.993439 1597.077393,238.239548 1599.503418,238.042572
	C1611.054077,237.104721 1622.501099,237.752182 1634.022461,239.336823
	C1644.936157,240.837860 1655.822144,242.265778 1666.491577,245.032486
	C1668.286743,245.497986 1670.248535,245.836365 1671.500000,247.500000
"/>
<path fill="none" opacity="1.000000" stroke="#ffffff" stroke-linecap="round" stroke-linejoin="round" stroke-width="6.000000"
	d="
M1678.750000,287.500000
	C1686.523315,291.997528 1686.072388,300.382599 1687.911255,307.522827
	C1691.287842,320.633728 1692.684326,334.217865 1697.416748,347.030762
	C1698.308472,349.444916 1699.463013,351.682648 1700.501099,353.999512
	C1704.343140,362.574402 1710.895996,362.199524 1717.444458,357.423859
	C1727.450806,350.126617 1734.978760,340.294159 1743.000244,331.000244
	C1748.277710,324.885742 1753.374756,318.629181 1758.000000,312.000000
"/>
<path fill="none" opacity="1.000000" stroke="#ffffff" stroke-linecap="round" stroke-linejoin="round" stroke-width="8.000000"
	d="
M1356.500000,281.500000
	C1361.501221,282.961243 1363.143433,285.056763 1363.481445,291.001068
	C1364.306396,305.513824 1366.362915,319.903412 1366.772583,334.492340
	C1367.132690,347.310486 1367.723877,360.172241 1368.482056,373.001068
	C1368.575073,374.575806 1368.677002,376.095245 1369.493042,377.504059
	C1372.253296,382.269257 1371.513794,387.304932 1371.122192,392.509186
	C1370.498047,400.808105 1370.666626,409.166656 1370.500000,417.500000
"/>
<path fill="none" opacity="1.000000" stroke="#ffffff" stroke-linecap="round" stroke-linejoin="round" stroke-width="6.000000"
	d="
M796.750000,287.500000
	C804.523376,291.997528 804.072327,300.382629 805.911194,307.522858
	C809.287659,320.633789 810.585205,334.254517 815.504395,346.998291
	C816.473938,349.510071 817.230530,352.153137 818.548462,354.472473
	C823.286804,362.811035 828.661865,362.174530 834.871643,357.817078
	C842.375793,352.551453 848.926819,345.906372 854.461243,338.471161
	C856.725891,335.428894 859.368652,333.123077 863.000000,332.000000
"/>
<path fill="none" opacity="1.000000" stroke="#ffffff" stroke-linecap="round" stroke-linejoin="round" stroke-width="8.000000"
	d="
M796.500000,289.000000
	C790.692383,293.180298 789.829834,300.065094 787.598755,306.036896
	C779.156250,328.635712 772.604858,351.801331 767.996826,375.499390
	C767.185791,379.670380 766.421814,383.853607 765.474304,387.994110
	C764.583191,391.888275 764.655090,396.045593 761.117981,399.135101
	C759.781067,400.302795 760.018372,403.000000 761.000000,405.000000
"/>
<path fill="none" opacity="1.000000" stroke="#ffffff" stroke-linecap="round" stroke-linejoin="round" stroke-width="8.000000"
	d="
M1678.500000,289.000000
	C1672.692383,293.180298 1671.829834,300.065155 1669.598877,306.036957
	C1661.156372,328.635742 1654.600220,351.800415 1650.000854,375.500183
	C1649.160156,379.832092 1648.416992,384.184937 1647.474731,388.494476
	C1646.669922,392.175812 1646.316650,396.042206 1643.515259,399.014374
	C1641.817383,400.815857 1642.345703,402.931580 1643.000000,405.000000
"/>
<path fill="none" opacity="1.000000" stroke="#ffffff" stroke-linecap="round" stroke-linejoin="round" stroke-width="8.000000"
	d="
M1589.000000,310.000000
	C1591.997803,313.872284 1591.971558,318.443085 1591.999634,323.000000
	C1592.121826,342.894836 1593.917480,362.686615 1595.332642,382.511932
	C1595.949829,391.158203 1596.670654,399.825317 1596.943115,408.501801
	C1597.000366,410.322876 1596.333374,412.166656 1596.000000,414.000000
"/>
<path fill="none" opacity="1.000000" stroke="#ffffff" stroke-linecap="round" stroke-linejoin="round" stroke-width="8.000000"
	d="
M932.500000,288.500000
	C932.927917,285.819824 934.145203,283.377319 934.078674,280.498169
	C933.866516,271.314270 928.035278,266.689972 918.988586,268.441010
	C912.316528,269.732483 906.886414,273.050568 902.006226,277.506836
	C891.589355,287.018951 883.293884,298.153412 876.444153,310.468933
	C873.100037,316.481659 869.228210,322.206757 865.470337,327.980713
	C863.926453,330.352875 862.715942,332.734772 864.039368,335.481049
	C865.260925,338.015839 864.068909,340.335632 863.389160,342.464600
	C861.658630,347.884552 860.714111,353.374603 861.062927,358.996094
	C861.363037,363.833374 863.611267,364.852234 867.470703,361.960876
	C873.003784,357.815674 877.354553,352.504486 881.520325,347.015411
	C891.817932,333.446808 901.950928,319.777466 910.561462,305.035889
	C911.783875,302.943054 913.509644,300.653778 915.579895,299.667755
	C918.321289,298.362213 918.278687,296.742065 917.750000,294.500000
"/>
<path fill="none" opacity="1.000000" stroke="#ffffff" stroke-linecap="round" stroke-linejoin="round" stroke-width="6.000000"
	d="
M759.500000,295.500000
	C759.623779,296.965698 759.394043,297.591003 757.541870,298.140991
	C752.546509,299.624268 751.771118,301.654419 752.980896,307.004303
	C753.275879,308.308655 753.448120,309.663666 753.483032,311.000458
	C754.158264,336.868317 755.543640,362.698547 757.486450,388.501007
	C757.766968,392.227142 756.563599,396.338989 760.500000,399.000000
"/>
<path fill="none" opacity="1.000000" stroke="#ffffff" stroke-linecap="round" stroke-linejoin="round" stroke-width="6.000000"
	d="
M708.000000,338.000000
	C715.147339,342.942871 714.165771,351.538818 708.881409,361.939758
	C700.435852,378.562744 687.581726,390.571075 669.537415,396.611694
	C667.197388,397.395081 664.817383,397.798035 662.479980,398.425415
	C658.308533,399.545044 656.642700,396.005035 654.500000,393.500000
"/>
<path fill="none" opacity="1.000000" stroke="#ffffff" stroke-linecap="round" stroke-linejoin="round" stroke-width="8.000000"
	d="
M477.000000,330.500000
	C479.733063,335.508392 479.654724,341.105927 479.917419,346.504028
	C480.754059,363.697388 482.083130,380.848877 483.352631,398.010895
	C483.741028,403.261627 485.242340,408.731537 483.000000,414.000000
"/>
<path fill="none" opacity="1.000000" stroke="#ffffff" stroke-linecap="round" stroke-linejoin="round" stroke-width="6.000000"
	d="
M1633.000000,156.000000
	C1631.264648,165.592972 1630.592773,175.305649 1631.085815,184.995636
	C1631.941895,201.824921 1630.780640,218.701935 1632.465820,235.503433
	C1632.563354,236.476913 1632.166626,237.500000 1632.000000,238.500000
"/>
<path fill="none" opacity="1.000000" stroke="#ffffff" stroke-linecap="round" stroke-linejoin="round" stroke-width="6.000000"
	d="
M1592.500000,240.500000
	C1583.349731,240.047089 1574.920654,243.232635 1566.531128,246.091461
	C1555.101074,249.986389 1543.723633,254.236038 1534.540283,262.544495
	C1532.962036,263.972229 1530.987427,262.902618 1529.500000,264.000000
"/>
<path fill="none" opacity="1.000000" stroke="#ffffff" stroke-linecap="round" stroke-linejoin="round" stroke-width="6.000000"
	d="
M751.500000,304.000000
	C746.959717,303.847351 744.156494,307.248810 741.071350,309.593872
	C729.468689,318.413422 716.746704,325.871704 707.000000,337.000000
	C693.721436,341.642883 686.814880,353.808258 677.115051,362.626556
	C670.196594,368.916260 664.801208,376.760345 659.574585,384.550049
	C657.772644,387.235626 656.833313,390.500000 655.500000,393.500000
"/>
<path fill="none" opacity="1.000000" stroke="#ffffff" stroke-linecap="round" stroke-linejoin="round" stroke-width="8.000000"
	d="
M1597.000000,194.000000
	C1596.166626,206.666672 1595.482056,219.346451 1594.366577,231.988220
	C1594.159302,234.337799 1594.126465,236.387711 1595.000000,238.500000
"/>
<path fill="none" opacity="1.000000" stroke="#ffffff" stroke-linecap="round" stroke-linejoin="round" stroke-width="8.000000"
	d="
M484.000000,194.000000
	C483.166656,206.666672 482.481964,219.346451 481.366608,231.988235
	C481.159302,234.337799 481.126495,236.387711 482.000000,238.500000
"/>
<path fill="none" opacity="1.000000" stroke="#ffffff" stroke-linecap="round" stroke-linejoin="round" stroke-width="5.000000"
	d="
M419.500000,267.000000
	C421.500000,268.000000 423.660034,268.772766 425.467743,270.045837
	C429.634674,272.980347 431.278717,279.529358 429.505890,285.001923
	C429.132172,286.155518 428.833344,287.333344 428.500031,288.500000
"/>
<path fill="none" opacity="1.000000" stroke="#ffffff" stroke-linecap="round" stroke-linejoin="round" stroke-width="3.000000"
	d="
M114.000000,192.000000
	C112.834778,193.833328 114.011192,195.666672 114.000000,197.500000
"/>
</svg>
